<?xml version="1.0" encoding="iso-8859-1"?>
<!-- Generator: Adobe Illustrator 19.0.0, SVG Export Plug-In . SVG Version: 6.00 Build 0)  -->
<svg version="1.1" id="Layer_1" xmlns="http://www.w3.org/2000/svg" xmlns:xlink="http://www.w3.org/1999/xlink" x="0px" y="0px"
	 viewBox="0 0 512 512" style="enable-background:new 0 0 512 512;" xml:space="preserve">
<g>
	<rect x="153.6" y="345.6" style="fill:#8C5F50;" width="17.067" height="68.267"/>
	<rect x="187.733" y="345.6" style="fill:#8C5F50;" width="17.067" height="68.267"/>
	<rect x="119.467" y="345.6" style="fill:#8C5F50;" width="17.067" height="68.267"/>
	<rect x="85.333" y="345.6" style="fill:#8C5F50;" width="17.067" height="68.267"/>
	<rect x="51.2" y="345.6" style="fill:#8C5F50;" width="17.067" height="68.267"/>
</g>
<polygon style="fill:#9B735A;" points="204.8,337.069 34.133,337.069 34.133,209.069 17.067,209.069 17.067,413.869 34.133,413.869 
	34.133,354.135 204.8,354.135 "/>
<rect x="17.067" y="209.067" style="fill:#8C5F50;" width="17.067" height="25.6"/>
<path style="fill:#785353;" d="M273.067,217.602h-256c-4.713,0-8.533-3.821-8.533-8.533v-51.2c0-4.713,3.821-8.533,8.533-8.533h256
	V217.602z"/>
<path style="fill:#6E4848;" d="M273.067,217.602h-256c-4.713,0-8.533-3.821-8.533-8.533v-8.533h264.533V217.602z"/>
<polygon style="fill:#FFC850;" points="486.4,413.869 196.267,413.869 196.267,217.602 341.333,98.135 486.4,217.602 "/>
<g>
	<rect x="324.267" y="149.333" style="fill:#00AAF0;" width="34.133" height="34.133"/>
	<rect x="230.4" y="251.733" style="fill:#00AAF0;" width="51.2" height="34.133"/>
</g>
<rect x="230.4" y="285.867" style="fill:#00C3FF;" width="51.2" height="51.2"/>
<rect x="196.267" y="371.2" style="fill:#9B735A;" width="290.133" height="42.667"/>
<polygon style="fill:#E1A546;" points="196.267,217.602 196.267,245.283 341.333,130.754 486.4,245.283 486.4,217.602 
	341.333,98.135 "/>
<rect x="196.267" y="209.067" style="fill:#9B735A;" width="290.133" height="17.067"/>
<path style="fill:#B4E66E;" d="M503.467,422.402H8.533c-4.717,0-8.533-3.817-8.533-8.533c0-4.717,3.817-8.533,8.533-8.533h494.933
	c4.717,0,8.533,3.817,8.533,8.533C512,418.586,508.182,422.402,503.467,422.402z"/>
<path style="fill:#9B735A;" d="M358.4,192.002h-34.133c-4.717,0-8.533-3.817-8.533-8.533v-34.133c0-4.717,3.817-8.533,8.533-8.533
	H358.4c4.717,0,8.533,3.817,8.533,8.533v34.133C366.933,188.185,363.117,192.002,358.4,192.002z M332.8,174.935h17.067v-17.067
	H332.8V174.935z"/>
<rect x="230.4" y="277.333" style="fill:#8C5F50;" width="51.2" height="17.067"/>
<rect x="315.733" y="251.733" style="fill:#00AAF0;" width="51.2" height="34.133"/>
<rect x="315.733" y="285.867" style="fill:#00C3FF;" width="51.2" height="51.2"/>
<rect x="315.733" y="277.333" style="fill:#8C5F50;" width="51.2" height="17.067"/>
<rect x="401.067" y="251.733" style="fill:#00AAF0;" width="51.2" height="34.133"/>
<rect x="401.067" y="285.867" style="fill:#00C3FF;" width="51.2" height="51.2"/>
<rect x="401.067" y="277.333" style="fill:#8C5F50;" width="51.2" height="17.067"/>
<g>
	<path style="fill:#9B735A;" d="M281.6,345.602h-51.2c-4.717,0-8.533-3.817-8.533-8.533v-85.333c0-4.717,3.817-8.533,8.533-8.533
		h51.2c4.717,0,8.533,3.817,8.533,8.533v85.333C290.133,341.785,286.317,345.602,281.6,345.602z M238.933,328.535h34.133v-68.267
		h-34.133V328.535z"/>
	<path style="fill:#9B735A;" d="M366.933,345.602h-51.2c-4.717,0-8.533-3.817-8.533-8.533v-85.333c0-4.717,3.817-8.533,8.533-8.533
		h51.2c4.717,0,8.533,3.817,8.533,8.533v85.333C375.467,341.785,371.65,345.602,366.933,345.602z M324.267,328.535H358.4v-68.267
		h-34.133V328.535z"/>
	<path style="fill:#9B735A;" d="M452.267,345.602h-51.2c-4.717,0-8.533-3.817-8.533-8.533v-85.333c0-4.717,3.817-8.533,8.533-8.533
		h51.2c4.717,0,8.533,3.817,8.533,8.533v85.333C460.8,341.785,456.982,345.602,452.267,345.602z M409.6,328.535h34.133v-68.267
		H409.6V328.535z"/>
</g>
<g>
	<polygon style="fill:#8C5F50;" points="242.138,209.069 206.628,209.069 196.267,217.602 196.267,226.135 220.521,226.135 	"/>
	<polygon style="fill:#8C5F50;" points="440.528,209.069 462.145,226.135 486.4,226.135 486.4,217.602 476.037,209.069 	"/>
</g>
<path style="fill:#6E4848;" d="M503.458,234.669c-1.85,0-3.716-0.601-5.283-1.834L341.333,109.01L184.492,232.835
	c-3.7,2.916-9.067,2.291-11.991-1.408c-2.916-3.7-2.284-9.067,1.408-11.991l162.133-128c3.1-2.45,7.484-2.45,10.583,0l162.133,128
	c3.692,2.925,4.325,8.291,1.408,11.991C508.483,233.552,505.983,234.669,503.458,234.669z"/>
<g>
</g>
<g>
</g>
<g>
</g>
<g>
</g>
<g>
</g>
<g>
</g>
<g>
</g>
<g>
</g>
<g>
</g>
<g>
</g>
<g>
</g>
<g>
</g>
<g>
</g>
<g>
</g>
<g>
</g>
</svg>
